<svg id="_图层_" data-name="&lt;图层&gt;" xmlns="http://www.w3.org/2000/svg" viewBox="0 0 600 600"><defs><style>.cls-1{fill:#fff;}</style></defs><path class="cls-1" d="M478.12,533.76c-13.76,0-26.17-7.18-30.78-18.06l-88.94-210a.7.7,0,0,0-1.27-.05l-59.79,114c-4,7.54-11.87,13.19-21.47,15.32A38.1,38.1,0,0,1,248,430.58l-96-58.72a.71.71,0,0,0-.81.06l-94,77.31C45.34,459,28.55,461.49,15,454.15c-18-9.79-19.83-30-5.41-41.89L125.43,317c11.43-9.41,29.45-10.49,42.41-2.56l85.33,52.19a.71.71,0,0,0,1-.28l77-146.7c5.35-10.19,17.68-16.68,31.11-16.22s25.18,7.56,29.62,18L467,398.8a.7.7,0,0,0,1.33-.12L535.24,88.49c3.17-14.67,20.12-24.44,37.86-21.83S602.65,83.3,599.49,98L510.26,511.51c-2.61,12.08-14.73,21.18-29.51,22.16C479.87,533.73,479,533.76,478.12,533.76Z"/></svg>